# xmcd CD database file
#
# Track frame offsets:
#	150
#	19267
#	41902
#	56710
#	77347
#	94017
#	124587
#	141002
#	164530
#	183627
#	205732
#
# Disc length: 3002 seconds
#
# Revision: 0
# Processed by: cddbd v1.4PL0 Copyright (c) Steve Scherf et al.
# Submitted via: CDex 1.50beta10
#
DISCID=930bb80b
DTITLE=Various Artist - Hooked, Hog-tied and Collared: Reintroducing The Blues
DYEAR=1993
DGENRE=Blues
TTITLE0=Paul Rogers/Muddy Water Blues
TTITLE1=Lucky Peterson/Who's Been Talkin'?
TTITLE2=Johnny Copeland/Flyin' High
TTITLE3=Lucky Peterson/I'm Ready
TTITLE4=Buddy Scott/Today I Started
TTITLE5=Joe Luis Walker/Help Yourself
TTITLE6=Lightin' Hopkins/Just Out of Louisiana
TTITLE7=Buddy Scott/Rock Me Baby
TTITLE8=Johnny Copeland/Hooked, Hog-tied and Collared
TTITLE9=Joe Luis Walker/Young Girl's Eyes
TTITLE10=Paul Rogers/House of the Rising Sun
EXTD=YEAR: 1993
EXTT0=
EXTT1=
EXTT2=
EXTT3=
EXTT4=
EXTT5=
EXTT6=
EXTT7=
EXTT8=
EXTT9=
EXTT10=
PLAYORDER=
